# xmcd
#
# Track frame offsets: 
#        150
#        21600
#        45150
#        59850
#        79500
#        94500
#        120298
#        142500
#
# Disc length: 2170 seconds
#
# Revision: 0
# Processed by: cddbd v1.5.2PL0 Copyright (c) Steve Scherf et al.
# Submitted via: ExactAudioCopy v0.95b4
#
DISCID=58087808
DTITLE=Grateful Dead - Workingman's Dead
DYEAR=1970
DGENRE=CountryRock
TTITLE0=Uncle John's Band
TTITLE1=High Time
TTITLE2=Dire Wolf
TTITLE3=New Speedway Boogie
TTITLE4=Cumberland Blues
TTITLE5=Black Peter
TTITLE6=Easy Wind
TTITLE7=Casey Jones
EXTD=
EXTT0=
EXTT1=
EXTT2=
EXTT3=
EXTT4=
EXTT5=
EXTT6=
EXTT7=
PLAYORDER=
